# xmcd
#
# Track frame offsets:
#	150
#	12668
#	40277
#	49623
#	64171
#	93522
#	116288
#	139660
#	156384
#	182044
#	209661
#	228511
#	247196
#	267214
#	288638
#
# Disc length: 4108 seconds
#
# Revision: 1
# Processed by: cddbd v1.4PL0 Copyright (c) Steve Scherf et al.
# Submitted via: audiograbber 1.80
#
DISCID=e4100a0f
DTITLE=Cam`ron - Come Home With Me
DYEAR=1900
DGENRE=
TTITLE0=Intro
TTITLE1=Losing Weight Part 2 feat. Juelz Santana
TTITLE2=Ob Boy feat. Juelz Santana
TTITLE3=Live My Life feat. Daz
TTITLE4=Day Dreaming feat. Tiffany
TTITLE5=Come Home With Me feat. Juelz Santana and Jimmy J
TTITLE6=Welcome To New York feat Jay-Z and Juelz Santana
TTITLE7=Hey Ma feat. Juelz Santana
TTITLE8=On Fire Tonight feat. Freekey Zekey
TTITLE9=Stop Calling feat. McGruff and Freekey Zekey
TTITLE10=I Just Wanna feat. Juelz Santana
TTITLE11=Dead Of Alive feat. Jimmy Jones
TTITLE12=The Roc feat. Memphis Bleek and Beanie Sigel
TTITLE13=Boy Boy
TTITLE14=Tommorrow
EXTD=
EXTT0=
EXTT1=
EXTT2=
EXTT3=
EXTT4=
EXTT5=
EXTT6=
EXTT7=
EXTT8=
EXTT9=
EXTT10=
EXTT11=
EXTT12=
EXTT13=
EXTT14=
PLAYORDER=
